<svg xmlns="http://www.w3.org/2000/svg" width="2400" height="2200" viewBox="0 0 2400 2200">
  <defs>
    <style>
      .title { font: 700 36px 'Arial', sans-serif; fill: #0f172a; }
      .subtitle { font: 500 16px 'Arial', sans-serif; fill: #334155; }
      .section { font: 700 20px 'Arial', sans-serif; fill: #0f172a; }
      .label { font: 700 13px 'Arial', sans-serif; fill: #0f172a; }
      .tiny { font: 600 11px 'Arial', sans-serif; fill: #0f172a; }
      .body { font: 500 13px 'Arial', sans-serif; fill: #1e293b; }
      .muted { font: 500 12px 'Arial', sans-serif; fill: #64748b; }
      .card { fill: #ffffff; stroke: #cbd5e1; stroke-width: 1.6; }
      .cardStrong { fill: #ffffff; stroke: #94a3b8; stroke-width: 2; }
      .gridStroke { stroke: #94a3b8; stroke-width: 1; }
      .gridHeavy { stroke: #64748b; stroke-width: 1.6; }
      .rowBandGroup { fill: #e0f2fe; }
      .rowBandStrip { fill: #e5e7eb; }
      .rowBandControl { fill: #dbeafe; }
      .colBandScratch { fill: #ffedd5; }
      .colBandStutter { fill: #fce7f3; }
      .modeSpeed { fill: #fde68a; }
      .modePitch { fill: #fca5a5; }
      .modePan { fill: #a7f3d0; }
      .modeVolume { fill: #93c5fd; }
      .modeGrain { fill: #c4b5fd; }
      .modeFilter { fill: #fcd34d; }
      .modeSwing { fill: #86efac; }
      .modeGate { fill: #fdba74; }
      .modeBrowser { fill: #a5b4fc; }
      .modeGroup { fill: #67e8f9; }
      .modeMod { fill: #f0abfc; }
      .modePreset { fill: #d9f99d; }
      .modeStep { fill: #f472b6; }
      .rangeStepTools { fill: #fbcfe8; }
      .rangeStepSelect { fill: #f9a8d4; }
      .rangeStepBank { fill: #f472b6; }
      .rangeStepGrid { fill: #e2e8f0; }
      .rangeGroupAssign { fill: #a5f3fc; }
      .rangeDirection { fill: #67e8f9; }
      .rangePlayMode { fill: #22d3ee; }
      .rangeModNav { fill: #f0abfc; }
      .rangeModSlots { fill: #e879f9; }
      .rangeModValues { fill: #f5d0fe; }
      .rangeBrowserNav { fill: #c7d2fe; }
      .rangeBrowserFav { fill: #a5b4fc; }
      .rangeBrowserBars { fill: #818cf8; }
      .rangeBrowserCapture { fill: #6366f1; }
      .callout { fill: #f8fafc; stroke: #cbd5e1; stroke-width: 1; }
      .arrow { stroke: #475569; stroke-width: 1.4; fill: none; }
    </style>
    <marker id="arrow" markerWidth="10" markerHeight="7" refX="9" refY="3.5" orient="auto" markerUnits="strokeWidth">
      <polygon points="0 0, 10 3.5, 0 7" fill="#475569" />
    </marker>
  </defs>

  <rect x="0" y="0" width="2400" height="2200" fill="#f3f6fb"/>

  <text x="60" y="60" class="title">mlrVST Monome Grid Schematics</text>
  <text x="60" y="86" class="subtitle">Full 16x8 grids shown. Control row is last row (y7 on 16x8, y15 on 16x16). Columns x0..x15.</text>

  <!-- Main overview -->
  <rect x="60" y="120" width="2280" height="640" rx="12" class="cardStrong"/>
  <text x="90" y="154" class="section">A) Main Overview (Normal Mode)</text>

  <!-- Main grid: 16x8, cell 32 -->
  <rect x="120" y="190" width="512" height="256" rx="6" fill="#f8fafc" stroke="#64748b" stroke-width="1.6"/>
  <!-- Row bands -->
  <rect x="120" y="190" width="512" height="32" class="rowBandGroup"/>
  <rect x="120" y="222" width="512" height="192" class="rowBandStrip"/>
  <rect x="120" y="414" width="512" height="32" class="rowBandControl"/>
  <!-- Control row mode colors (x0..x12) -->
  <rect x="120" y="414" width="32" height="32" class="modeSpeed"/>
  <rect x="152" y="414" width="32" height="32" class="modePitch"/>
  <rect x="184" y="414" width="32" height="32" class="modePan"/>
  <rect x="216" y="414" width="32" height="32" class="modeVolume"/>
  <rect x="248" y="414" width="32" height="32" class="modeGrain"/>
  <rect x="280" y="414" width="32" height="32" class="modeFilter"/>
  <rect x="312" y="414" width="32" height="32" class="modeSwing"/>
  <rect x="344" y="414" width="32" height="32" class="modeGate"/>
  <rect x="376" y="414" width="32" height="32" class="modeBrowser"/>
  <rect x="408" y="414" width="32" height="32" class="modeGroup"/>
  <rect x="440" y="414" width="32" height="32" class="modeMod"/>
  <rect x="472" y="414" width="32" height="32" class="modePreset"/>
  <rect x="504" y="414" width="32" height="32" class="modeStep"/>
  <!-- Column bands for scratch/stutter (row 0) -->
  <rect x="376" y="190" width="32" height="32" class="colBandScratch"/>
  <rect x="408" y="190" width="224" height="32" class="colBandStutter"/>

  <!-- Grid lines -->
  <g class="gridStroke">
    <line x1="120" y1="190" x2="120" y2="446"/>
    <line x1="152" y1="190" x2="152" y2="446"/>
    <line x1="184" y1="190" x2="184" y2="446"/>
    <line x1="216" y1="190" x2="216" y2="446"/>
    <line x1="248" y1="190" x2="248" y2="446"/>
    <line x1="280" y1="190" x2="280" y2="446"/>
    <line x1="312" y1="190" x2="312" y2="446"/>
    <line x1="344" y1="190" x2="344" y2="446"/>
    <line x1="376" y1="190" x2="376" y2="446"/>
    <line x1="408" y1="190" x2="408" y2="446"/>
    <line x1="440" y1="190" x2="440" y2="446"/>
    <line x1="472" y1="190" x2="472" y2="446"/>
    <line x1="504" y1="190" x2="504" y2="446"/>
    <line x1="536" y1="190" x2="536" y2="446"/>
    <line x1="568" y1="190" x2="568" y2="446"/>
    <line x1="600" y1="190" x2="600" y2="446"/>
    <line x1="632" y1="190" x2="632" y2="446"/>

    <line x1="120" y1="190" x2="632" y2="190"/>
    <line x1="120" y1="222" x2="632" y2="222"/>
    <line x1="120" y1="254" x2="632" y2="254"/>
    <line x1="120" y1="286" x2="632" y2="286"/>
    <line x1="120" y1="318" x2="632" y2="318"/>
    <line x1="120" y1="350" x2="632" y2="350"/>
    <line x1="120" y1="382" x2="632" y2="382"/>
    <line x1="120" y1="414" x2="632" y2="414"/>
    <line x1="120" y1="446" x2="632" y2="446"/>
  </g>
  <g class="gridHeavy">
    <line x1="120" y1="190" x2="632" y2="190"/>
    <line x1="120" y1="222" x2="632" y2="222"/>
    <line x1="120" y1="414" x2="632" y2="414"/>
    <line x1="120" y1="446" x2="632" y2="446"/>
  </g>

  <!-- Row labels -->
  <text x="90" y="210" class="label">y0</text>
  <text x="90" y="242" class="label">y1</text>
  <text x="90" y="274" class="label">y2</text>
  <text x="90" y="306" class="label">y3</text>
  <text x="90" y="338" class="label">y4</text>
  <text x="90" y="370" class="label">y5</text>
  <text x="90" y="402" class="label">y6</text>
  <text x="90" y="434" class="label">y7</text>

  <!-- Main overview text block -->
  <text x="680" y="210" class="body">Row y0 (Groups/Patterns/Scratch/Stutter):</text>
  <text x="700" y="234" class="body">x0..x3 = Group mute/unmute.</text>
  <text x="700" y="256" class="body">x4..x7 = Pattern record/play (auto-quantized length on stop).</text>
  <text x="700" y="278" class="body">x8 = Momentary scratch hold.</text>
  <text x="700" y="300" class="body">x9..x15 = Momentary stutter rates: 1/2, 1/4, 1/8, 1/16, 1/32, 1/64, 1/128.</text>

  <text x="680" y="334" class="body">Rows y1..y6 (Strip rows):</text>
  <text x="700" y="358" class="body">x0..x15 = Slice/step triggers. Hold first then press second = inner loop.</text>
  <text x="700" y="380" class="body">If second &lt; first, inner loop plays reverse. Exit returns to normal playback.</text>

  <text x="680" y="414" class="body">Row y7 (Control row):</text>
  <text x="700" y="438" class="body">x0..x12 = Control page buttons (Speed, Pitch, Pan, Volume, Grain, Filter, Swing, Gate, Browser, Group, Mod, Preset, Step).</text>
  <text x="700" y="460" class="body">x13/x14 = Step Edit pitch -/+ semitone (only in Step Edit). x15 = Quantize toggle.</text>

  <!-- Mode color legend -->
  <rect x="680" y="490" width="1120" height="58" rx="8" class="callout"/>
  <rect x="700" y="504" width="14" height="14" class="modeSpeed"/><text x="720" y="516" class="tiny">Speed</text>
  <rect x="780" y="504" width="14" height="14" class="modePitch"/><text x="800" y="516" class="tiny">Pitch</text>
  <rect x="860" y="504" width="14" height="14" class="modePan"/><text x="880" y="516" class="tiny">Pan</text>
  <rect x="930" y="504" width="14" height="14" class="modeVolume"/><text x="950" y="516" class="tiny">Volume</text>
  <rect x="1030" y="504" width="14" height="14" class="modeGrain"/><text x="1050" y="516" class="tiny">Grain</text>
  <rect x="1120" y="504" width="14" height="14" class="modeFilter"/><text x="1140" y="516" class="tiny">Filter</text>
  <rect x="1210" y="504" width="14" height="14" class="modeSwing"/><text x="1230" y="516" class="tiny">Swing</text>
  <rect x="1300" y="504" width="14" height="14" class="modeGate"/><text x="1320" y="516" class="tiny">Gate</text>
  <rect x="1380" y="504" width="14" height="14" class="modeBrowser"/><text x="1400" y="516" class="tiny">Browser</text>
  <rect x="1490" y="504" width="14" height="14" class="modeGroup"/><text x="1510" y="516" class="tiny">Group</text>
  <rect x="1580" y="504" width="14" height="14" class="modeMod"/><text x="1600" y="516" class="tiny">Mod</text>
  <rect x="1650" y="504" width="14" height="14" class="modePreset"/><text x="1670" y="516" class="tiny">Preset</text>
  <rect x="1750" y="504" width="14" height="14" class="modeStep"/><text x="1770" y="516" class="tiny">Step</text>

  <text x="90" y="570" class="body">Notes: Control pages are reorderable. Step Edit tools live on y0 and use full grid for step editing.</text>

  <!-- Special pages section header -->
  <text x="90" y="790" class="section">B) Special Pages (Full 16x8 Grids)</text>

  <!-- Step Edit page card -->
  <rect x="60" y="820" width="1120" height="520" rx="12" class="cardStrong"/>
  <text x="90" y="854" class="section modeStep">Step Edit Page</text>

  <!-- Step Edit grid: cell 30 -->
  <rect x="110" y="890" width="480" height="240" rx="6" fill="#f8fafc" stroke="#64748b" stroke-width="1.6"/>
  <rect x="110" y="890" width="480" height="30" class="rowBandGroup"/>
  <rect x="110" y="920" width="480" height="180" class="rowBandStrip"/>
  <rect x="110" y="1100" width="480" height="30" class="rowBandControl"/>
  <!-- Step Edit range highlights -->
  <rect x="110" y="890" width="240" height="30" class="rangeStepTools"/>
  <rect x="350" y="890" width="180" height="30" class="rangeStepSelect"/>
  <rect x="530" y="890" width="60" height="30" class="rangeStepBank"/>
  <rect x="110" y="920" width="480" height="180" class="rangeStepGrid"/>
  <g class="gridStroke">
    <line x1="110" y1="890" x2="110" y2="1130"/>
    <line x1="140" y1="890" x2="140" y2="1130"/>
    <line x1="170" y1="890" x2="170" y2="1130"/>
    <line x1="200" y1="890" x2="200" y2="1130"/>
    <line x1="230" y1="890" x2="230" y2="1130"/>
    <line x1="260" y1="890" x2="260" y2="1130"/>
    <line x1="290" y1="890" x2="290" y2="1130"/>
    <line x1="320" y1="890" x2="320" y2="1130"/>
    <line x1="350" y1="890" x2="350" y2="1130"/>
    <line x1="380" y1="890" x2="380" y2="1130"/>
    <line x1="410" y1="890" x2="410" y2="1130"/>
    <line x1="440" y1="890" x2="440" y2="1130"/>
    <line x1="470" y1="890" x2="470" y2="1130"/>
    <line x1="500" y1="890" x2="500" y2="1130"/>
    <line x1="530" y1="890" x2="530" y2="1130"/>
    <line x1="560" y1="890" x2="560" y2="1130"/>
    <line x1="590" y1="890" x2="590" y2="1130"/>

    <line x1="110" y1="890" x2="590" y2="890"/>
    <line x1="110" y1="920" x2="590" y2="920"/>
    <line x1="110" y1="950" x2="590" y2="950"/>
    <line x1="110" y1="980" x2="590" y2="980"/>
    <line x1="110" y1="1010" x2="590" y2="1010"/>
    <line x1="110" y1="1040" x2="590" y2="1040"/>
    <line x1="110" y1="1070" x2="590" y2="1070"/>
    <line x1="110" y1="1100" x2="590" y2="1100"/>
    <line x1="110" y1="1130" x2="590" y2="1130"/>
  </g>
  <g class="gridHeavy">
    <line x1="110" y1="890" x2="590" y2="890"/>
    <line x1="110" y1="920" x2="590" y2="920"/>
    <line x1="110" y1="1100" x2="590" y2="1100"/>
    <line x1="110" y1="1130" x2="590" y2="1130"/>
  </g>

  <!-- Step Edit callouts -->
  <rect x="650" y="900" width="470" height="72" rx="8" class="callout"/>
  <text x="670" y="924" class="body">y0 tools: x0 Velocity, x1 Divide, x2 RampUp, x3 RampDown, x4 Probability,</text>
  <text x="670" y="946" class="body">x5 Attack, x6 Decay, x7 Release (Pitch tool).</text>
  <line x1="650" y1="905" x2="230" y2="905" class="arrow" marker-end="url(#arrow)"/>

  <rect x="650" y="980" width="470" height="58" rx="8" class="callout"/>
  <text x="670" y="1004" class="body">y0 strip select: x8..x13 (banked by 6). x14/x15 = bank -/+.</text>
  <line x1="650" y1="965" x2="440" y2="905" class="arrow" marker-end="url(#arrow)"/>
  <line x1="650" y1="975" x2="560" y2="905" class="arrow" marker-end="url(#arrow)"/>

  <rect x="650" y="1048" width="470" height="58" rx="8" class="callout"/>
  <text x="670" y="1072" class="body">y1..y6: steps for selected strip. x0..x15 = step index.</text>
  <line x1="650" y1="1035" x2="350" y2="1010" class="arrow" marker-end="url(#arrow)"/>

  <rect x="650" y="1114" width="470" height="58" rx="8" class="callout"/>
  <text x="670" y="1138" class="body">y7 control row: page buttons; x13/x14 pitch -/+ semitone; x15 quantize.</text>
  <line x1="650" y1="1110" x2="350" y2="1115" class="arrow" marker-end="url(#arrow)"/>

  <!-- Group page card -->
  <rect x="1220" y="820" width="1120" height="520" rx="12" class="cardStrong"/>
  <text x="1250" y="854" class="section modeGroup">Group Assign Page</text>

  <!-- Group grid -->
  <rect x="1270" y="890" width="480" height="240" rx="6" fill="#f8fafc" stroke="#64748b" stroke-width="1.6"/>
  <rect x="1270" y="890" width="480" height="30" class="rowBandGroup"/>
  <rect x="1270" y="920" width="480" height="180" class="rowBandStrip"/>
  <rect x="1270" y="1100" width="480" height="30" class="rowBandControl"/>
  <!-- Group Assign range highlights (strip rows only) -->
  <rect x="1270" y="920" width="150" height="180" class="rangeGroupAssign"/>
  <rect x="1450" y="920" width="180" height="180" class="rangeDirection"/>
  <rect x="1660" y="920" width="90" height="180" class="rangePlayMode"/>
  <g class="gridStroke">
    <line x1="1270" y1="890" x2="1270" y2="1130"/>
    <line x1="1300" y1="890" x2="1300" y2="1130"/>
    <line x1="1330" y1="890" x2="1330" y2="1130"/>
    <line x1="1360" y1="890" x2="1360" y2="1130"/>
    <line x1="1390" y1="890" x2="1390" y2="1130"/>
    <line x1="1420" y1="890" x2="1420" y2="1130"/>
    <line x1="1450" y1="890" x2="1450" y2="1130"/>
    <line x1="1480" y1="890" x2="1480" y2="1130"/>
    <line x1="1510" y1="890" x2="1510" y2="1130"/>
    <line x1="1540" y1="890" x2="1540" y2="1130"/>
    <line x1="1570" y1="890" x2="1570" y2="1130"/>
    <line x1="1600" y1="890" x2="1600" y2="1130"/>
    <line x1="1630" y1="890" x2="1630" y2="1130"/>
    <line x1="1660" y1="890" x2="1660" y2="1130"/>
    <line x1="1690" y1="890" x2="1690" y2="1130"/>
    <line x1="1720" y1="890" x2="1720" y2="1130"/>
    <line x1="1750" y1="890" x2="1750" y2="1130"/>

    <line x1="1270" y1="890" x2="1750" y2="890"/>
    <line x1="1270" y1="920" x2="1750" y2="920"/>
    <line x1="1270" y1="950" x2="1750" y2="950"/>
    <line x1="1270" y1="980" x2="1750" y2="980"/>
    <line x1="1270" y1="1010" x2="1750" y2="1010"/>
    <line x1="1270" y1="1040" x2="1750" y2="1040"/>
    <line x1="1270" y1="1070" x2="1750" y2="1070"/>
    <line x1="1270" y1="1100" x2="1750" y2="1100"/>
    <line x1="1270" y1="1130" x2="1750" y2="1130"/>
  </g>
  <g class="gridHeavy">
    <line x1="1270" y1="890" x2="1750" y2="890"/>
    <line x1="1270" y1="920" x2="1750" y2="920"/>
    <line x1="1270" y1="1100" x2="1750" y2="1100"/>
    <line x1="1270" y1="1130" x2="1750" y2="1130"/>
  </g>

  <rect x="1810" y="900" width="470" height="58" rx="8" class="callout"/>
  <text x="1830" y="924" class="body">Per strip row: x0 = No group. x1..x4 = Assign to group 1..4.</text>
  <line x1="1810" y1="905" x2="1345" y2="1010" class="arrow" marker-end="url(#arrow)"/>

  <rect x="1810" y="968" width="470" height="58" rx="8" class="callout"/>
  <text x="1830" y="992" class="body">x6..x11 = Direction: Normal, Reverse, PingPong, Random, RandomWalk, RandomSlice.</text>
  <line x1="1810" y1="970" x2="1540" y2="1010" class="arrow" marker-end="url(#arrow)"/>

  <rect x="1810" y="1036" width="470" height="58" rx="8" class="callout"/>
  <text x="1830" y="1060" class="body">x13..x15 = Play mode: Loop, Step, Grain. (x5/x12 are visual spacers.)</text>
  <line x1="1810" y1="1035" x2="1705" y2="1010" class="arrow" marker-end="url(#arrow)"/>

  <!-- Mod page card -->
  <rect x="60" y="1380" width="1120" height="520" rx="12" class="cardStrong"/>
  <text x="90" y="1414" class="section modeMod">Modulation Page</text>

  <!-- Mod grid -->
  <rect x="110" y="1450" width="480" height="240" rx="6" fill="#f8fafc" stroke="#64748b" stroke-width="1.6"/>
  <rect x="110" y="1450" width="480" height="30" class="rowBandGroup"/>
  <rect x="110" y="1480" width="480" height="180" class="rowBandStrip"/>
  <rect x="110" y="1660" width="480" height="30" class="rowBandControl"/>
  <!-- Modulation range highlights -->
  <rect x="440" y="1450" width="60" height="30" class="rangeModNav"/>
  <rect x="500" y="1450" width="90" height="30" class="rangeModSlots"/>
  <rect x="110" y="1480" width="480" height="180" class="rangeModValues"/>
  <g class="gridStroke">
    <line x1="110" y1="1450" x2="110" y2="1690"/>
    <line x1="140" y1="1450" x2="140" y2="1690"/>
    <line x1="170" y1="1450" x2="170" y2="1690"/>
    <line x1="200" y1="1450" x2="200" y2="1690"/>
    <line x1="230" y1="1450" x2="230" y2="1690"/>
    <line x1="260" y1="1450" x2="260" y2="1690"/>
    <line x1="290" y1="1450" x2="290" y2="1690"/>
    <line x1="320" y1="1450" x2="320" y2="1690"/>
    <line x1="350" y1="1450" x2="350" y2="1690"/>
    <line x1="380" y1="1450" x2="380" y2="1690"/>
    <line x1="410" y1="1450" x2="410" y2="1690"/>
    <line x1="440" y1="1450" x2="440" y2="1690"/>
    <line x1="470" y1="1450" x2="470" y2="1690"/>
    <line x1="500" y1="1450" x2="500" y2="1690"/>
    <line x1="530" y1="1450" x2="530" y2="1690"/>
    <line x1="560" y1="1450" x2="560" y2="1690"/>
    <line x1="590" y1="1450" x2="590" y2="1690"/>

    <line x1="110" y1="1450" x2="590" y2="1450"/>
    <line x1="110" y1="1480" x2="590" y2="1480"/>
    <line x1="110" y1="1510" x2="590" y2="1510"/>
    <line x1="110" y1="1540" x2="590" y2="1540"/>
    <line x1="110" y1="1570" x2="590" y2="1570"/>
    <line x1="110" y1="1600" x2="590" y2="1600"/>
    <line x1="110" y1="1630" x2="590" y2="1630"/>
    <line x1="110" y1="1660" x2="590" y2="1660"/>
    <line x1="110" y1="1690" x2="590" y2="1690"/>
  </g>
  <g class="gridHeavy">
    <line x1="110" y1="1450" x2="590" y2="1450"/>
    <line x1="110" y1="1480" x2="590" y2="1480"/>
    <line x1="110" y1="1660" x2="590" y2="1660"/>
    <line x1="110" y1="1690" x2="590" y2="1690"/>
  </g>

  <rect x="650" y="1460" width="470" height="58" rx="8" class="callout"/>
  <text x="670" y="1484" class="body">y0: x11/x12 = page -/+; x13..x15 = mod slot select (A/B/C).</text>
  <line x1="650" y1="1465" x2="470" y2="1465" class="arrow" marker-end="url(#arrow)"/>
  <line x1="650" y1="1475" x2="545" y2="1465" class="arrow" marker-end="url(#arrow)"/>

  <rect x="650" y="1528" width="470" height="58" rx="8" class="callout"/>
  <text x="670" y="1552" class="body">y1..y6: x = step index; y = value. Bipolar mode maps center row to 0.</text>
  <line x1="650" y1="1535" x2="350" y2="1570" class="arrow" marker-end="url(#arrow)"/>

  <!-- Browser page card -->
  <rect x="1220" y="1380" width="1120" height="520" rx="12" class="cardStrong"/>
  <text x="1250" y="1414" class="section modeBrowser">Browser Page</text>

  <!-- Browser grid -->
  <rect x="1270" y="1450" width="480" height="240" rx="6" fill="#f8fafc" stroke="#64748b" stroke-width="1.6"/>
  <rect x="1270" y="1450" width="480" height="30" class="rowBandGroup"/>
  <rect x="1270" y="1480" width="480" height="180" class="rowBandStrip"/>
  <rect x="1270" y="1660" width="480" height="30" class="rowBandControl"/>
  <!-- Browser range highlights (strip rows only) -->
  <rect x="1270" y="1480" width="60" height="180" class="rangeBrowserNav"/>
  <rect x="1360" y="1480" width="180" height="180" class="rangeBrowserFav"/>
  <rect x="1600" y="1480" width="120" height="180" class="rangeBrowserBars"/>
  <rect x="1720" y="1480" width="30" height="180" class="rangeBrowserCapture"/>
  <g class="gridStroke">
    <line x1="1270" y1="1450" x2="1270" y2="1690"/>
    <line x1="1300" y1="1450" x2="1300" y2="1690"/>
    <line x1="1330" y1="1450" x2="1330" y2="1690"/>
    <line x1="1360" y1="1450" x2="1360" y2="1690"/>
    <line x1="1390" y1="1450" x2="1390" y2="1690"/>
    <line x1="1420" y1="1450" x2="1420" y2="1690"/>
    <line x1="1450" y1="1450" x2="1450" y2="1690"/>
    <line x1="1480" y1="1450" x2="1480" y2="1690"/>
    <line x1="1510" y1="1450" x2="1510" y2="1690"/>
    <line x1="1540" y1="1450" x2="1540" y2="1690"/>
    <line x1="1570" y1="1450" x2="1570" y2="1690"/>
    <line x1="1600" y1="1450" x2="1600" y2="1690"/>
    <line x1="1630" y1="1450" x2="1630" y2="1690"/>
    <line x1="1660" y1="1450" x2="1660" y2="1690"/>
    <line x1="1690" y1="1450" x2="1690" y2="1690"/>
    <line x1="1720" y1="1450" x2="1720" y2="1690"/>
    <line x1="1750" y1="1450" x2="1750" y2="1690"/>

    <line x1="1270" y1="1450" x2="1750" y2="1450"/>
    <line x1="1270" y1="1480" x2="1750" y2="1480"/>
    <line x1="1270" y1="1510" x2="1750" y2="1510"/>
    <line x1="1270" y1="1540" x2="1750" y2="1540"/>
    <line x1="1270" y1="1570" x2="1750" y2="1570"/>
    <line x1="1270" y1="1600" x2="1750" y2="1600"/>
    <line x1="1270" y1="1630" x2="1750" y2="1630"/>
    <line x1="1270" y1="1660" x2="1750" y2="1660"/>
    <line x1="1270" y1="1690" x2="1750" y2="1690"/>
  </g>
  <g class="gridHeavy">
    <line x1="1270" y1="1450" x2="1750" y2="1450"/>
    <line x1="1270" y1="1480" x2="1750" y2="1480"/>
    <line x1="1270" y1="1660" x2="1750" y2="1660"/>
    <line x1="1270" y1="1690" x2="1750" y2="1690"/>
  </g>

  <rect x="1810" y="1460" width="470" height="58" rx="8" class="callout"/>
  <text x="1830" y="1484" class="body">Per strip row: x0 Prev, x1 Next. x3..x8 = Favorites (hold to store).</text>
  <line x1="1810" y1="1465" x2="1300" y2="1570" class="arrow" marker-end="url(#arrow)"/>
  <line x1="1810" y1="1475" x2="1450" y2="1570" class="arrow" marker-end="url(#arrow)"/>

  <rect x="1810" y="1528" width="470" height="58" rx="8" class="callout"/>
  <text x="1830" y="1552" class="body">x11..x14 = Bars (1,2,4,8). x15 = Capture recent audio.</text>
  <line x1="1810" y1="1535" x2="1660" y2="1570" class="arrow" marker-end="url(#arrow)"/>
  <line x1="1810" y1="1545" x2="1735" y2="1570" class="arrow" marker-end="url(#arrow)"/>

  <!-- Footer -->
  <text x="60" y="2140" class="muted">Based on current code: MonomeController, MonomeGroupAssignActions, MonomeFileBrowserActions.</text>
</svg>
