<svg xmlns="http://www.w3.org/2000/svg" width="2400" height="2200" viewBox="0 0 2400 2200">
  <defs>
    <style>
      .title { font: 700 36px 'Arial', sans-serif; fill: #0f172a; }
      .subtitle { font: 500 16px 'Arial', sans-serif; fill: #334155; }
      .section { font: 700 20px 'Arial', sans-serif; fill: #0f172a; }
      .label { font: 700 13px 'Arial', sans-serif; fill: #0f172a; }
      .tiny { font: 600 11px 'Arial', sans-serif; fill: #0f172a; }
      .body { font: 500 13px 'Arial', sans-serif; fill: #1e293b; }
      .muted { font: 500 12px 'Arial', sans-serif; fill: #64748b; }
      .card { fill: #ffffff; stroke: #cbd5e1; stroke-width: 1.6; }
      .cardStrong { fill: #ffffff; stroke: #94a3b8; stroke-width: 2; }
      .gridStroke { stroke: #94a3b8; stroke-width: 1; }
      .gridHeavy { stroke: #64748b; stroke-width: 1.6; }
      .rowBandGroup { fill: #e0f2fe; }
      .rowBandStrip { fill: #e5e7eb; }
      .rowBandControl { fill: #dbeafe; }
      .colBandScratch { fill: #ffedd5; }
      .colBandStutter { fill: #fce7f3; }
      .modeSpeed { fill: #fde68a; }
      .modePitch { fill: #fca5a5; }
      .modePan { fill: #a7f3d0; }
      .modeVolume { fill: #93c5fd; }
      .modeGrain { fill: #c4b5fd; }
      .modeFilter { fill: #fcd34d; }
      .modeSwing { fill: #86efac; }
      .modeGate { fill: #fdba74; }
      .modeBrowser { fill: #a5b4fc; }
      .modeGroup { fill: #67e8f9; }
      .modeMod { fill: #f0abfc; }
      .modePreset { fill: #d9f99d; }
      .modeStep { fill: #f472b6; }
      .rangeStepTools { fill: #fbcfe8; }
      .rangeStepSelect { fill: #f9a8d4; }
      .rangeStepBank { fill: #f472b6; }
      .rangeStepGrid { fill: #e2e8f0; }
      .rangeGroupAssign { fill: #a5f3fc; }
      .rangeDirection { fill: #67e8f9; }
      .rangePlayMode { fill: #22d3ee; }
      .rangeModNav { fill: #f0abfc; }
      .rangeModSlots { fill: #e879f9; }
      .rangeModValues { fill: #f5d0fe; }
      .rangeBrowserNav { fill: #c7d2fe; }
      .rangeBrowserFav { fill: #a5b4fc; }
      .rangeBrowserBars { fill: #818cf8; }
      .rangeBrowserCapture { fill: #6366f1; }
      .callout { fill: #f8fafc; stroke: #cbd5e1; stroke-width: 1; }
      .arrow { stroke: #475569; stroke-width: 1.4; fill: none; }
    </style>
    <marker id="arrow" markerWidth="10" markerHeight="7" refX="9" refY="3.5" orient="auto" markerUnits="strokeWidth">
      <polygon points="0 0, 10 3.5, 0 7" fill="#475569" />
    </marker>
  </defs>

  <rect x="0" y="0" width="2400" height="2200" fill="#f3f6fb"/>

  <text x="60" y="60" class="title">mlrVST Monome Grid Schematics</text>
  <text x="60" y="86" class="subtitle">Full 16x8 grids shown. Control row is last row (y7 on 16x8, y15 on 16x16). Columns x0..x15.</text>

  <!-- Main overview -->
  <rect x="60" y="120" width="2280" height="640" rx="12" class="cardStrong"/>
  <text x="90" y="154" class="section">A) Main Overview (Normal Mode)</text>

  <!-- Main grid: 16x8, cell 32 -->
  <rect x="120" y="190" width="512" height="256" rx="6" fill="#f8fafc" stroke="#64748b" stroke-width="1.6"/>
  <!-- Row bands -->
  <rect x="120" y="190" width="512" height="32" class="rowBandGroup"/>
  <rect x="120" y="222" width="512" height="192" class="rowBandStrip"/>
  <rect x="120" y="414" width="512" height="32" class="rowBandControl"/>
  <!-- Control row mode colors (x0..x12) -->
  <rect x="120" y="414" width="32" height="32" class="modeSpeed"/>
  <rect x="152" y="414" width="32" height="32" class="modePitch"/>
  <rect x="184" y="414" width="32" height="32" class="modePan"/>
  <rect x="216" y="414" width="32" height="32" class="modeVolume"/>
  <rect x="248" y="414" width="32" height="32" class="modeGrain"/>
  <rect x="280" y="414" width="32" height="32" class="modeFilter"/>
  <rect x="312" y="414" width="32" height="32" class="modeSwing"/>
  <rect x="344" y="414" width="32" height="32" class="modeGate"/>
  <rect x="376" y="414" width="32" height="32" class="modeBrowser"/>
  <rect x="408" y="414" width="32" height="32" class="modeGroup"/>
  <rect x="440" y="414" width="32" height="32" class="modeMod"/>
  <rect x="472" y="414" width="32" height="32" class="modePreset"/>
  <rect x="504" y="414" width="32" height="32" class="modeStep"/>
  <!-- Column bands for scratch/stutter (row 0) -->
  <rect x="376" y="190" width="32" height="32" class="colBandScratch"/>
  <rect x="408" y="190" width="224" height="32" class="colBandStutter"/>

  <!-- Grid lines -->
  <g class="gridStroke">
    <line x1="120" y1="190" x2="120" y2="446"/>
    <line x1="152" y1="190" x2="152" y2="446"/>
    <line x1="184" y1="190" x2="184" y2="446"/>
    <line x1="216" y1="190" x2="216" y2="446"/>
    <line x1="248" y1="190" x2="248" y2="446"/>
    <line x1="280" y1="190" x2="280" y2="446"/>
    <line x1="312" y1="190" x2="312" y2="446"/>
    <line x1="344" y1="190" x2="344" y2="446"/>
    <line x1="376" y1="190" x2="376" y2="446"/>
    <line x1="408" y1="190" x2="408" y2="446"/>
    <line x1="440" y1="190" x2="440" y2="446"/>
    <line x1="472" y1="190" x2="472" y2="446"/>
    <line x1="504" y1="190" x2="504" y2="446"/>
    <line x1="536" y1="190" x2="536" y2="446"/>
    <line x1="568" y1="190" x2="568" y2="446"/>
    <line x1="600" y1="190" x2="600" y2="446"/>
    <line x1="632" y1="190" x2="632" y2="446"/>

    <line x1="120" y1="190" x2="632" y2="190"/>
    <line x1="120" y1="222" x2="632" y2="222"/>
    <line x1="120" y1="254" x2="632" y2="254"/>
    <line x1="120" y1="286" x2="632" y2="286"/>
    <line x1="120" y1="318" x2="632" y2="318"/>
    <line x1="120" y1="350" x2="632" y2="350"/>
    <line x1="120" y1="382" x2="632" y2="382"/>
    <line x1="120" y1="414" x2="632" y2="414"/>
    <line x1="120" y1="446" x2="632" y2="446"/>
  </g>
  <g class="gridHeavy">
    <line x1="120" y1="190" x2="632" y2="190"/>
    <line x1="120" y1="222" x2="632" y2="222"/>
    <line x1="120" y1="414" x2="632" y2="414"/>
    <line x1="120" y1="446" x2="632" y2="446"/>
  </g>

  <!-- Row labels -->
  <text x="90" y="210" class="label">y0</text>
  <text x="90" y="242" class="label">y1</text>
  <text x="90" y="274" class="label">y2</text>
  <text x="90" y="306" class="label">y3</text>
  <text x="90" y="338" class="label">y4</text>
  <text x="90" y="370" class="label">y5</text>
  <text x="90" y="402" class="label">y6</text>
  <text x="90" y="434" class="label">y7</text>

  <!-- Main overview callouts (one per function) -->
  <rect x="680" y="200" width="520" height="28" rx="6" class="callout"/>
  <text x="694" y="219" class="body">x0..x3 Group mute/unmute</text>
  <line x1="680" y1="214" x2="170" y2="206" class="arrow" marker-end="url(#arrow)"/>

  <rect x="680" y="232" width="520" height="28" rx="6" class="callout"/>
  <text x="694" y="251" class="body">x4..x7 Pattern record/play/stop</text>
  <line x1="680" y1="246" x2="298" y2="206" class="arrow" marker-end="url(#arrow)"/>

  <rect x="680" y="264" width="520" height="28" rx="6" class="callout"/>
  <text x="694" y="283" class="body">x8 Momentary scratch hold</text>
  <line x1="680" y1="278" x2="402" y2="206" class="arrow" marker-end="url(#arrow)"/>

  <rect x="680" y="296" width="520" height="28" rx="6" class="callout"/>
  <text x="694" y="315" class="body">x9..x15 Momentary stutter rates (1/2 → 1/128)</text>
  <line x1="680" y1="310" x2="520" y2="206" class="arrow" marker-end="url(#arrow)"/>

  <rect x="680" y="332" width="520" height="28" rx="6" class="callout"/>
  <text x="694" y="351" class="body">y1..y6 Strip triggers (slice/step)</text>
  <line x1="680" y1="346" x2="170" y2="270" class="arrow" marker-end="url(#arrow)"/>

  <rect x="680" y="364" width="520" height="28" rx="6" class="callout"/>
  <text x="694" y="383" class="body">Hold first then press second = inner loop</text>
  <line x1="680" y1="378" x2="330" y2="302" class="arrow" marker-end="url(#arrow)"/>

  <rect x="680" y="396" width="520" height="28" rx="6" class="callout"/>
  <text x="694" y="415" class="body">Second &lt; first = inner loop reverse</text>
  <line x1="680" y1="410" x2="330" y2="334" class="arrow" marker-end="url(#arrow)"/>

  <rect x="680" y="432" width="520" height="28" rx="6" class="callout"/>
  <text x="694" y="451" class="body">y7 x0..x12 Control pages (Speed→Step)</text>
  <line x1="680" y1="446" x2="200" y2="430" class="arrow" marker-end="url(#arrow)"/>

  <rect x="680" y="464" width="520" height="28" rx="6" class="callout"/>
  <text x="694" y="483" class="body">y7 x13 Step Edit pitch -1 semitone</text>
  <line x1="680" y1="478" x2="545" y2="430" class="arrow" marker-end="url(#arrow)"/>

  <rect x="680" y="496" width="520" height="28" rx="6" class="callout"/>
  <text x="694" y="515" class="body">y7 x14 Step Edit pitch +1 semitone</text>
  <line x1="680" y1="510" x2="577" y2="430" class="arrow" marker-end="url(#arrow)"/>

  <rect x="680" y="528" width="520" height="28" rx="6" class="callout"/>
  <text x="694" y="547" class="body">y7 x15 Quantize toggle</text>
  <line x1="680" y1="542" x2="610" y2="430" class="arrow" marker-end="url(#arrow)"/>

  <!-- Mode color legend -->
  <rect x="680" y="490" width="1120" height="58" rx="8" class="callout"/>
  <rect x="700" y="504" width="14" height="14" class="modeSpeed"/><text x="720" y="516" class="tiny">Speed</text>
  <rect x="780" y="504" width="14" height="14" class="modePitch"/><text x="800" y="516" class="tiny">Pitch</text>
  <rect x="860" y="504" width="14" height="14" class="modePan"/><text x="880" y="516" class="tiny">Pan</text>
  <rect x="930" y="504" width="14" height="14" class="modeVolume"/><text x="950" y="516" class="tiny">Volume</text>
  <rect x="1030" y="504" width="14" height="14" class="modeGrain"/><text x="1050" y="516" class="tiny">Grain</text>
  <rect x="1120" y="504" width="14" height="14" class="modeFilter"/><text x="1140" y="516" class="tiny">Filter</text>
  <rect x="1210" y="504" width="14" height="14" class="modeSwing"/><text x="1230" y="516" class="tiny">Swing</text>
  <rect x="1300" y="504" width="14" height="14" class="modeGate"/><text x="1320" y="516" class="tiny">Gate</text>
  <rect x="1380" y="504" width="14" height="14" class="modeBrowser"/><text x="1400" y="516" class="tiny">Browser</text>
  <rect x="1490" y="504" width="14" height="14" class="modeGroup"/><text x="1510" y="516" class="tiny">Group</text>
  <rect x="1580" y="504" width="14" height="14" class="modeMod"/><text x="1600" y="516" class="tiny">Mod</text>
  <rect x="1650" y="504" width="14" height="14" class="modePreset"/><text x="1670" y="516" class="tiny">Preset</text>
  <rect x="1750" y="504" width="14" height="14" class="modeStep"/><text x="1770" y="516" class="tiny">Step</text>

  <text x="90" y="590" class="body">Notes: Control pages are reorderable. Step Edit tools live on y0 and use full grid for step editing.</text>

  <!-- Special pages section header -->
  <text x="90" y="790" class="section">B) Special Pages (Full 16x8 Grids)</text>

  <!-- Step Edit page card -->
  <rect x="60" y="820" width="1120" height="520" rx="12" class="cardStrong"/>
  <text x="90" y="854" class="section modeStep">Step Edit Page</text>

  <!-- Step Edit grid: cell 30 -->
  <rect x="110" y="890" width="480" height="240" rx="6" fill="#f8fafc" stroke="#64748b" stroke-width="1.6"/>
  <rect x="110" y="890" width="480" height="30" class="rowBandGroup"/>
  <rect x="110" y="920" width="480" height="180" class="rowBandStrip"/>
  <rect x="110" y="1100" width="480" height="30" class="rowBandControl"/>
  <!-- Step Edit range highlights -->
  <rect x="110" y="890" width="240" height="30" class="rangeStepTools"/>
  <rect x="350" y="890" width="180" height="30" class="rangeStepSelect"/>
  <rect x="530" y="890" width="60" height="30" class="rangeStepBank"/>
  <rect x="110" y="920" width="480" height="180" class="rangeStepGrid"/>
  <g class="gridStroke">
    <line x1="110" y1="890" x2="110" y2="1130"/>
    <line x1="140" y1="890" x2="140" y2="1130"/>
    <line x1="170" y1="890" x2="170" y2="1130"/>
    <line x1="200" y1="890" x2="200" y2="1130"/>
    <line x1="230" y1="890" x2="230" y2="1130"/>
    <line x1="260" y1="890" x2="260" y2="1130"/>
    <line x1="290" y1="890" x2="290" y2="1130"/>
    <line x1="320" y1="890" x2="320" y2="1130"/>
    <line x1="350" y1="890" x2="350" y2="1130"/>
    <line x1="380" y1="890" x2="380" y2="1130"/>
    <line x1="410" y1="890" x2="410" y2="1130"/>
    <line x1="440" y1="890" x2="440" y2="1130"/>
    <line x1="470" y1="890" x2="470" y2="1130"/>
    <line x1="500" y1="890" x2="500" y2="1130"/>
    <line x1="530" y1="890" x2="530" y2="1130"/>
    <line x1="560" y1="890" x2="560" y2="1130"/>
    <line x1="590" y1="890" x2="590" y2="1130"/>

    <line x1="110" y1="890" x2="590" y2="890"/>
    <line x1="110" y1="920" x2="590" y2="920"/>
    <line x1="110" y1="950" x2="590" y2="950"/>
    <line x1="110" y1="980" x2="590" y2="980"/>
    <line x1="110" y1="1010" x2="590" y2="1010"/>
    <line x1="110" y1="1040" x2="590" y2="1040"/>
    <line x1="110" y1="1070" x2="590" y2="1070"/>
    <line x1="110" y1="1100" x2="590" y2="1100"/>
    <line x1="110" y1="1130" x2="590" y2="1130"/>
  </g>
  <g class="gridHeavy">
    <line x1="110" y1="890" x2="590" y2="890"/>
    <line x1="110" y1="920" x2="590" y2="920"/>
    <line x1="110" y1="1100" x2="590" y2="1100"/>
    <line x1="110" y1="1130" x2="590" y2="1130"/>
  </g>

  <!-- Step Edit callouts (one per function) -->
  <rect x="620" y="900" width="520" height="26" rx="6" class="callout"/>
  <text x="634" y="918" class="body">x0 Velocity tool</text>
  <line x1="620" y1="913" x2="125" y2="905" class="arrow" marker-end="url(#arrow)"/>

  <rect x="620" y="928" width="520" height="26" rx="6" class="callout"/>
  <text x="634" y="946" class="body">x1 Divide tool</text>
  <line x1="620" y1="941" x2="155" y2="905" class="arrow" marker-end="url(#arrow)"/>

  <rect x="620" y="956" width="520" height="26" rx="6" class="callout"/>
  <text x="634" y="974" class="body">x2 Ramp+ tool</text>
  <line x1="620" y1="969" x2="185" y2="905" class="arrow" marker-end="url(#arrow)"/>

  <rect x="620" y="984" width="520" height="26" rx="6" class="callout"/>
  <text x="634" y="1002" class="body">x3 Ramp- tool</text>
  <line x1="620" y1="997" x2="215" y2="905" class="arrow" marker-end="url(#arrow)"/>

  <rect x="620" y="1012" width="520" height="26" rx="6" class="callout"/>
  <text x="634" y="1030" class="body">x4 Probability tool</text>
  <line x1="620" y1="1025" x2="245" y2="905" class="arrow" marker-end="url(#arrow)"/>

  <rect x="620" y="1040" width="520" height="26" rx="6" class="callout"/>
  <text x="634" y="1058" class="body">x5 Attack tool</text>
  <line x1="620" y1="1053" x2="275" y2="905" class="arrow" marker-end="url(#arrow)"/>

  <rect x="620" y="1068" width="520" height="26" rx="6" class="callout"/>
  <text x="634" y="1086" class="body">x6 Decay tool</text>
  <line x1="620" y1="1081" x2="305" y2="905" class="arrow" marker-end="url(#arrow)"/>

  <rect x="620" y="1096" width="520" height="26" rx="6" class="callout"/>
  <text x="634" y="1114" class="body">x7 Pitch tool</text>
  <line x1="620" y1="1109" x2="335" y2="905" class="arrow" marker-end="url(#arrow)"/>

  <rect x="620" y="1124" width="520" height="26" rx="6" class="callout"/>
  <text x="634" y="1142" class="body">x8..x13 Select strip for step edit</text>
  <line x1="620" y1="1137" x2="470" y2="905" class="arrow" marker-end="url(#arrow)"/>

  <rect x="620" y="1152" width="520" height="26" rx="6" class="callout"/>
  <text x="634" y="1170" class="body">x14 Strip bank -</text>
  <line x1="620" y1="1165" x2="545" y2="905" class="arrow" marker-end="url(#arrow)"/>

  <rect x="620" y="1180" width="520" height="26" rx="6" class="callout"/>
  <text x="634" y="1198" class="body">x15 Strip bank +</text>
  <line x1="620" y1="1193" x2="575" y2="905" class="arrow" marker-end="url(#arrow)"/>

  <rect x="620" y="1208" width="520" height="26" rx="6" class="callout"/>
  <text x="634" y="1226" class="body">y1..y6 Step grid (x0..x15 = step index)</text>
  <line x1="620" y1="1221" x2="350" y2="1010" class="arrow" marker-end="url(#arrow)"/>

  <rect x="620" y="1236" width="520" height="26" rx="6" class="callout"/>
  <text x="634" y="1254" class="body">Velocity tool: bottom row disables step</text>
  <line x1="620" y1="1249" x2="350" y2="1075" class="arrow" marker-end="url(#arrow)"/>

  <!-- Group page card -->
  <rect x="1220" y="820" width="1120" height="520" rx="12" class="cardStrong"/>
  <text x="1250" y="854" class="section modeGroup">Group Assign Page</text>

  <!-- Group grid -->
  <rect x="1270" y="890" width="480" height="240" rx="6" fill="#f8fafc" stroke="#64748b" stroke-width="1.6"/>
  <rect x="1270" y="890" width="480" height="30" class="rowBandGroup"/>
  <rect x="1270" y="920" width="480" height="180" class="rowBandStrip"/>
  <rect x="1270" y="1100" width="480" height="30" class="rowBandControl"/>
  <!-- Group Assign range highlights (strip rows only) -->
  <rect x="1270" y="920" width="150" height="180" class="rangeGroupAssign"/>
  <rect x="1450" y="920" width="180" height="180" class="rangeDirection"/>
  <rect x="1660" y="920" width="90" height="180" class="rangePlayMode"/>
  <g class="gridStroke">
    <line x1="1270" y1="890" x2="1270" y2="1130"/>
    <line x1="1300" y1="890" x2="1300" y2="1130"/>
    <line x1="1330" y1="890" x2="1330" y2="1130"/>
    <line x1="1360" y1="890" x2="1360" y2="1130"/>
    <line x1="1390" y1="890" x2="1390" y2="1130"/>
    <line x1="1420" y1="890" x2="1420" y2="1130"/>
    <line x1="1450" y1="890" x2="1450" y2="1130"/>
    <line x1="1480" y1="890" x2="1480" y2="1130"/>
    <line x1="1510" y1="890" x2="1510" y2="1130"/>
    <line x1="1540" y1="890" x2="1540" y2="1130"/>
    <line x1="1570" y1="890" x2="1570" y2="1130"/>
    <line x1="1600" y1="890" x2="1600" y2="1130"/>
    <line x1="1630" y1="890" x2="1630" y2="1130"/>
    <line x1="1660" y1="890" x2="1660" y2="1130"/>
    <line x1="1690" y1="890" x2="1690" y2="1130"/>
    <line x1="1720" y1="890" x2="1720" y2="1130"/>
    <line x1="1750" y1="890" x2="1750" y2="1130"/>

    <line x1="1270" y1="890" x2="1750" y2="890"/>
    <line x1="1270" y1="920" x2="1750" y2="920"/>
    <line x1="1270" y1="950" x2="1750" y2="950"/>
    <line x1="1270" y1="980" x2="1750" y2="980"/>
    <line x1="1270" y1="1010" x2="1750" y2="1010"/>
    <line x1="1270" y1="1040" x2="1750" y2="1040"/>
    <line x1="1270" y1="1070" x2="1750" y2="1070"/>
    <line x1="1270" y1="1100" x2="1750" y2="1100"/>
    <line x1="1270" y1="1130" x2="1750" y2="1130"/>
  </g>
  <g class="gridHeavy">
    <line x1="1270" y1="890" x2="1750" y2="890"/>
    <line x1="1270" y1="920" x2="1750" y2="920"/>
    <line x1="1270" y1="1100" x2="1750" y2="1100"/>
    <line x1="1270" y1="1130" x2="1750" y2="1130"/>
  </g>

  <!-- Group page callouts (one per function) -->
  <rect x="1780" y="900" width="250" height="26" rx="6" class="callout"/>
  <text x="1794" y="918" class="body">x0 Ungroup</text>
  <line x1="1780" y1="913" x2="1285" y2="1010" class="arrow" marker-end="url(#arrow)"/>

  <rect x="1780" y="928" width="250" height="26" rx="6" class="callout"/>
  <text x="1794" y="946" class="body">x1 Group 1</text>
  <line x1="1780" y1="941" x2="1315" y2="1010" class="arrow" marker-end="url(#arrow)"/>

  <rect x="1780" y="956" width="250" height="26" rx="6" class="callout"/>
  <text x="1794" y="974" class="body">x2 Group 2</text>
  <line x1="1780" y1="969" x2="1345" y2="1010" class="arrow" marker-end="url(#arrow)"/>

  <rect x="1780" y="984" width="250" height="26" rx="6" class="callout"/>
  <text x="1794" y="1002" class="body">x3 Group 3</text>
  <line x1="1780" y1="997" x2="1375" y2="1010" class="arrow" marker-end="url(#arrow)"/>

  <rect x="1780" y="1012" width="250" height="26" rx="6" class="callout"/>
  <text x="1794" y="1030" class="body">x4 Group 4</text>
  <line x1="1780" y1="1025" x2="1405" y2="1010" class="arrow" marker-end="url(#arrow)"/>

  <rect x="1780" y="1040" width="250" height="26" rx="6" class="callout"/>
  <text x="1794" y="1058" class="body">x6 Direction: Normal</text>
  <line x1="1780" y1="1053" x2="1465" y2="1010" class="arrow" marker-end="url(#arrow)"/>

  <rect x="1780" y="1068" width="250" height="26" rx="6" class="callout"/>
  <text x="1794" y="1086" class="body">x7 Direction: Reverse</text>
  <line x1="1780" y1="1081" x2="1495" y2="1010" class="arrow" marker-end="url(#arrow)"/>

  <rect x="2060" y="900" width="250" height="26" rx="6" class="callout"/>
  <text x="2074" y="918" class="body">x8 Direction: PingPong</text>
  <line x1="2060" y1="913" x2="1525" y2="1010" class="arrow" marker-end="url(#arrow)"/>

  <rect x="2060" y="928" width="250" height="26" rx="6" class="callout"/>
  <text x="2074" y="946" class="body">x9 Direction: Random</text>
  <line x1="2060" y1="941" x2="1555" y2="1010" class="arrow" marker-end="url(#arrow)"/>

  <rect x="2060" y="956" width="250" height="26" rx="6" class="callout"/>
  <text x="2074" y="974" class="body">x10 Direction: Rnd Walk</text>
  <line x1="2060" y1="969" x2="1585" y2="1010" class="arrow" marker-end="url(#arrow)"/>

  <rect x="2060" y="984" width="250" height="26" rx="6" class="callout"/>
  <text x="2074" y="1002" class="body">x11 Direction: Rnd Slice</text>
  <line x1="2060" y1="997" x2="1615" y2="1010" class="arrow" marker-end="url(#arrow)"/>

  <rect x="2060" y="1012" width="250" height="26" rx="6" class="callout"/>
  <text x="2074" y="1030" class="body">x13 Play mode: Loop</text>
  <line x1="2060" y1="1025" x2="1675" y2="1010" class="arrow" marker-end="url(#arrow)"/>

  <rect x="2060" y="1040" width="250" height="26" rx="6" class="callout"/>
  <text x="2074" y="1058" class="body">x14 Play mode: Step</text>
  <line x1="2060" y1="1053" x2="1705" y2="1010" class="arrow" marker-end="url(#arrow)"/>

  <rect x="2060" y="1068" width="250" height="26" rx="6" class="callout"/>
  <text x="2074" y="1086" class="body">x15 Play mode: Grain</text>
  <line x1="2060" y1="1081" x2="1735" y2="1010" class="arrow" marker-end="url(#arrow)"/>

  <!-- Mod page card -->
  <rect x="60" y="1380" width="1120" height="520" rx="12" class="cardStrong"/>
  <text x="90" y="1414" class="section modeMod">Modulation Page</text>

  <!-- Mod grid -->
  <rect x="110" y="1450" width="480" height="240" rx="6" fill="#f8fafc" stroke="#64748b" stroke-width="1.6"/>
  <rect x="110" y="1450" width="480" height="30" class="rowBandGroup"/>
  <rect x="110" y="1480" width="480" height="180" class="rowBandStrip"/>
  <rect x="110" y="1660" width="480" height="30" class="rowBandControl"/>
  <!-- Modulation range highlights -->
  <rect x="440" y="1450" width="60" height="30" class="rangeModNav"/>
  <rect x="500" y="1450" width="90" height="30" class="rangeModSlots"/>
  <rect x="110" y="1480" width="480" height="180" class="rangeModValues"/>
  <g class="gridStroke">
    <line x1="110" y1="1450" x2="110" y2="1690"/>
    <line x1="140" y1="1450" x2="140" y2="1690"/>
    <line x1="170" y1="1450" x2="170" y2="1690"/>
    <line x1="200" y1="1450" x2="200" y2="1690"/>
    <line x1="230" y1="1450" x2="230" y2="1690"/>
    <line x1="260" y1="1450" x2="260" y2="1690"/>
    <line x1="290" y1="1450" x2="290" y2="1690"/>
    <line x1="320" y1="1450" x2="320" y2="1690"/>
    <line x1="350" y1="1450" x2="350" y2="1690"/>
    <line x1="380" y1="1450" x2="380" y2="1690"/>
    <line x1="410" y1="1450" x2="410" y2="1690"/>
    <line x1="440" y1="1450" x2="440" y2="1690"/>
    <line x1="470" y1="1450" x2="470" y2="1690"/>
    <line x1="500" y1="1450" x2="500" y2="1690"/>
    <line x1="530" y1="1450" x2="530" y2="1690"/>
    <line x1="560" y1="1450" x2="560" y2="1690"/>
    <line x1="590" y1="1450" x2="590" y2="1690"/>

    <line x1="110" y1="1450" x2="590" y2="1450"/>
    <line x1="110" y1="1480" x2="590" y2="1480"/>
    <line x1="110" y1="1510" x2="590" y2="1510"/>
    <line x1="110" y1="1540" x2="590" y2="1540"/>
    <line x1="110" y1="1570" x2="590" y2="1570"/>
    <line x1="110" y1="1600" x2="590" y2="1600"/>
    <line x1="110" y1="1630" x2="590" y2="1630"/>
    <line x1="110" y1="1660" x2="590" y2="1660"/>
    <line x1="110" y1="1690" x2="590" y2="1690"/>
  </g>
  <g class="gridHeavy">
    <line x1="110" y1="1450" x2="590" y2="1450"/>
    <line x1="110" y1="1480" x2="590" y2="1480"/>
    <line x1="110" y1="1660" x2="590" y2="1660"/>
    <line x1="110" y1="1690" x2="590" y2="1690"/>
  </g>

  <!-- Modulation callouts (one per function) -->
  <rect x="620" y="1460" width="520" height="26" rx="6" class="callout"/>
  <text x="634" y="1478" class="body">x11 Mod page -</text>
  <line x1="620" y1="1473" x2="455" y2="1465" class="arrow" marker-end="url(#arrow)"/>

  <rect x="620" y="1488" width="520" height="26" rx="6" class="callout"/>
  <text x="634" y="1506" class="body">x12 Mod page +</text>
  <line x1="620" y1="1501" x2="485" y2="1465" class="arrow" marker-end="url(#arrow)"/>

  <rect x="620" y="1516" width="520" height="26" rx="6" class="callout"/>
  <text x="634" y="1534" class="body">x13 Mod slot A</text>
  <line x1="620" y1="1529" x2="515" y2="1465" class="arrow" marker-end="url(#arrow)"/>

  <rect x="620" y="1544" width="520" height="26" rx="6" class="callout"/>
  <text x="634" y="1562" class="body">x14 Mod slot B</text>
  <line x1="620" y1="1557" x2="545" y2="1465" class="arrow" marker-end="url(#arrow)"/>

  <rect x="620" y="1572" width="520" height="26" rx="6" class="callout"/>
  <text x="634" y="1590" class="body">x15 Mod slot C</text>
  <line x1="620" y1="1585" x2="575" y2="1465" class="arrow" marker-end="url(#arrow)"/>

  <rect x="620" y="1600" width="520" height="26" rx="6" class="callout"/>
  <text x="634" y="1618" class="body">y1..y6 Mod values (center row = 0 in bipolar)</text>
  <line x1="620" y1="1613" x2="350" y2="1570" class="arrow" marker-end="url(#arrow)"/>

  <!-- Browser page card -->
  <rect x="1220" y="1380" width="1120" height="520" rx="12" class="cardStrong"/>
  <text x="1250" y="1414" class="section modeBrowser">Browser Page</text>

  <!-- Browser grid -->
  <rect x="1270" y="1450" width="480" height="240" rx="6" fill="#f8fafc" stroke="#64748b" stroke-width="1.6"/>
  <rect x="1270" y="1450" width="480" height="30" class="rowBandGroup"/>
  <rect x="1270" y="1480" width="480" height="180" class="rowBandStrip"/>
  <rect x="1270" y="1660" width="480" height="30" class="rowBandControl"/>
  <!-- Browser range highlights (strip rows only) -->
  <rect x="1270" y="1480" width="60" height="180" class="rangeBrowserNav"/>
  <rect x="1360" y="1480" width="180" height="180" class="rangeBrowserFav"/>
  <rect x="1600" y="1480" width="120" height="180" class="rangeBrowserBars"/>
  <rect x="1720" y="1480" width="30" height="180" class="rangeBrowserCapture"/>
  <g class="gridStroke">
    <line x1="1270" y1="1450" x2="1270" y2="1690"/>
    <line x1="1300" y1="1450" x2="1300" y2="1690"/>
    <line x1="1330" y1="1450" x2="1330" y2="1690"/>
    <line x1="1360" y1="1450" x2="1360" y2="1690"/>
    <line x1="1390" y1="1450" x2="1390" y2="1690"/>
    <line x1="1420" y1="1450" x2="1420" y2="1690"/>
    <line x1="1450" y1="1450" x2="1450" y2="1690"/>
    <line x1="1480" y1="1450" x2="1480" y2="1690"/>
    <line x1="1510" y1="1450" x2="1510" y2="1690"/>
    <line x1="1540" y1="1450" x2="1540" y2="1690"/>
    <line x1="1570" y1="1450" x2="1570" y2="1690"/>
    <line x1="1600" y1="1450" x2="1600" y2="1690"/>
    <line x1="1630" y1="1450" x2="1630" y2="1690"/>
    <line x1="1660" y1="1450" x2="1660" y2="1690"/>
    <line x1="1690" y1="1450" x2="1690" y2="1690"/>
    <line x1="1720" y1="1450" x2="1720" y2="1690"/>
    <line x1="1750" y1="1450" x2="1750" y2="1690"/>

    <line x1="1270" y1="1450" x2="1750" y2="1450"/>
    <line x1="1270" y1="1480" x2="1750" y2="1480"/>
    <line x1="1270" y1="1510" x2="1750" y2="1510"/>
    <line x1="1270" y1="1540" x2="1750" y2="1540"/>
    <line x1="1270" y1="1570" x2="1750" y2="1570"/>
    <line x1="1270" y1="1600" x2="1750" y2="1600"/>
    <line x1="1270" y1="1630" x2="1750" y2="1630"/>
    <line x1="1270" y1="1660" x2="1750" y2="1660"/>
    <line x1="1270" y1="1690" x2="1750" y2="1690"/>
  </g>
  <g class="gridHeavy">
    <line x1="1270" y1="1450" x2="1750" y2="1450"/>
    <line x1="1270" y1="1480" x2="1750" y2="1480"/>
    <line x1="1270" y1="1660" x2="1750" y2="1660"/>
    <line x1="1270" y1="1690" x2="1750" y2="1690"/>
  </g>

  <!-- Browser callouts (one per function) -->
  <rect x="1780" y="1460" width="250" height="26" rx="6" class="callout"/>
  <text x="1794" y="1478" class="body">x0 Prev sample</text>
  <line x1="1780" y1="1473" x2="1285" y2="1570" class="arrow" marker-end="url(#arrow)"/>

  <rect x="1780" y="1488" width="250" height="26" rx="6" class="callout"/>
  <text x="1794" y="1506" class="body">x1 Next sample</text>
  <line x1="1780" y1="1501" x2="1315" y2="1570" class="arrow" marker-end="url(#arrow)"/>

  <rect x="1780" y="1516" width="250" height="26" rx="6" class="callout"/>
  <text x="1794" y="1534" class="body">x3 Favorite 1</text>
  <line x1="1780" y1="1529" x2="1375" y2="1570" class="arrow" marker-end="url(#arrow)"/>

  <rect x="1780" y="1544" width="250" height="26" rx="6" class="callout"/>
  <text x="1794" y="1562" class="body">x4 Favorite 2</text>
  <line x1="1780" y1="1557" x2="1405" y2="1570" class="arrow" marker-end="url(#arrow)"/>

  <rect x="1780" y="1572" width="250" height="26" rx="6" class="callout"/>
  <text x="1794" y="1590" class="body">x5 Favorite 3</text>
  <line x1="1780" y1="1585" x2="1435" y2="1570" class="arrow" marker-end="url(#arrow)"/>

  <rect x="1780" y="1600" width="250" height="26" rx="6" class="callout"/>
  <text x="1794" y="1618" class="body">x6 Favorite 4</text>
  <line x1="1780" y1="1613" x2="1465" y2="1570" class="arrow" marker-end="url(#arrow)"/>

  <rect x="2060" y="1460" width="250" height="26" rx="6" class="callout"/>
  <text x="2074" y="1478" class="body">x7 Favorite 5</text>
  <line x1="2060" y1="1473" x2="1495" y2="1570" class="arrow" marker-end="url(#arrow)"/>

  <rect x="2060" y="1488" width="250" height="26" rx="6" class="callout"/>
  <text x="2074" y="1506" class="body">x8 Favorite 6</text>
  <line x1="2060" y1="1501" x2="1525" y2="1570" class="arrow" marker-end="url(#arrow)"/>

  <rect x="2060" y="1516" width="250" height="26" rx="6" class="callout"/>
  <text x="2074" y="1534" class="body">x11 Record 1 bar</text>
  <line x1="2060" y1="1529" x2="1615" y2="1570" class="arrow" marker-end="url(#arrow)"/>

  <rect x="2060" y="1544" width="250" height="26" rx="6" class="callout"/>
  <text x="2074" y="1562" class="body">x12 Record 2 bars</text>
  <line x1="2060" y1="1557" x2="1645" y2="1570" class="arrow" marker-end="url(#arrow)"/>

  <rect x="2060" y="1572" width="250" height="26" rx="6" class="callout"/>
  <text x="2074" y="1590" class="body">x13 Record 4 bars</text>
  <line x1="2060" y1="1585" x2="1675" y2="1570" class="arrow" marker-end="url(#arrow)"/>

  <rect x="2060" y="1600" width="250" height="26" rx="6" class="callout"/>
  <text x="2074" y="1618" class="body">x14 Record 8 bars</text>
  <line x1="2060" y1="1613" x2="1705" y2="1570" class="arrow" marker-end="url(#arrow)"/>

  <rect x="2060" y="1628" width="250" height="26" rx="6" class="callout"/>
  <text x="2074" y="1646" class="body">x15 Capture recent input</text>
  <line x1="2060" y1="1641" x2="1735" y2="1570" class="arrow" marker-end="url(#arrow)"/>

  <!-- Footer -->
  <text x="60" y="2140" class="muted">Based on current code: MonomeController, MonomeGroupAssignActions, MonomeFileBrowserActions.</text>
</svg>
